<svg width="35" height="35" viewBox="0 0 35 35" fill="none" xmlns="http://www.w3.org/2000/svg">
<path d="M34.9261 29.9798C35.1205 28.969 34.8872 28.1135 34.7317 27.5694C32.6714 25.7808 30.5726 23.9923 28.5123 22.2038C27.9291 21.8927 27.1129 21.5816 26.4131 21.8927C25.7522 22.1649 25.5192 22.8257 25.2471 23.2535C24.1199 25.0031 21.1657 24.8865 18.6389 24.0698C17.084 23.5643 11.4477 17.9267 10.9423 16.3715C10.1261 13.8444 10.0095 10.8892 11.7584 9.76178C12.1861 9.48957 12.8467 9.25624 13.1189 8.59546C13.43 7.89548 13.1189 7.07917 12.8079 6.49582C11.0197 4.43507 9.23159 2.33573 7.44351 0.274979C6.8992 0.080542 6.00526 -0.113903 5.03364 0.080542C1.72984 0.663862 0.446822 4.78539 0.330471 5.05758C-0.174959 6.76835 0.0194422 8.20694 0.136078 8.75132C0.485994 11.0454 4.17864 19.7153 10.2427 25.7417C15.9567 31.4571 24.0805 34.5286 26.2578 34.8782C26.8022 34.956 28.2404 35.1893 29.9507 34.6838C30.2229 34.5671 34.3432 33.2841 34.9263 29.9793L34.9261 29.9798Z" fill="#6CA242"/>
</svg>
