<svg width="50" height="36" viewBox="0 0 50 36" fill="none" xmlns="http://www.w3.org/2000/svg">
<path fill-rule="evenodd" clip-rule="evenodd" d="M10.1206 25.7781C8.89121 25.7781 7.72236 26.2626 6.85281 27.1317C5.98372 28.0008 5.4992 29.1696 5.4992 30.3994C5.4992 31.6288 5.98369 32.7976 6.85281 33.6672C7.72191 34.5363 8.89072 35.0208 10.1206 35.0208C11.3499 35.0208 12.5188 34.5363 13.3883 33.6672C14.2574 32.7981 14.7419 31.6293 14.7419 30.3994C14.7419 29.1701 14.2574 28.0012 13.3883 27.1317C12.5192 26.2626 11.3504 25.7781 10.1206 25.7781ZM7.06404 30.3994C7.06404 29.5857 7.38393 28.8134 7.95901 28.2383C8.53409 27.6632 9.30693 27.3433 10.1202 27.3433C10.9339 27.3433 11.7062 27.6632 12.2813 28.2383C12.8564 28.8134 13.1763 29.5862 13.1763 30.3994C13.1763 31.2131 12.8564 31.9855 12.2813 32.5606C11.7062 33.1357 10.9334 33.4556 10.1202 33.4556C9.30645 33.4556 8.53411 33.1357 7.95901 32.5606C7.38393 31.9855 7.06404 31.2127 7.06404 30.3994Z" fill="#D6F819"/>
<path fill-rule="evenodd" clip-rule="evenodd" d="M39.8709 25.7781C38.6415 25.7781 37.4727 26.2626 36.6031 27.1317C35.734 28.0008 35.2495 29.1696 35.2495 30.3994C35.2495 31.6288 35.734 32.7976 36.6031 33.6672C37.4722 34.5363 38.641 35.0208 39.8709 35.0208C41.1002 35.0208 42.2691 34.5363 43.1386 33.6672C44.0077 32.7981 44.4922 31.6293 44.4922 30.3994C44.4922 29.1701 44.0078 28.0012 43.1386 27.1317C42.2695 26.2626 41.1007 25.7781 39.8709 25.7781ZM36.8144 30.3994C36.8144 29.5857 37.1343 28.8134 37.7093 28.2383C38.2844 27.6632 39.0572 27.3433 39.8705 27.3433C40.6842 27.3433 41.4565 27.6632 42.0316 28.2383C42.6067 28.8134 42.9266 29.5862 42.9266 30.3994C42.9266 31.2131 42.6067 31.9855 42.0316 32.5606C41.4565 33.1357 40.6837 33.4556 39.8705 33.4556C39.0568 33.4556 38.2844 33.1357 37.7093 32.5606C37.1343 31.9855 36.8144 31.2127 36.8144 30.3994Z" fill="#D6F819"/>
<path d="M10.1206 28.5688C9.61537 28.5688 9.15779 28.7738 8.82651 29.1051C8.49523 29.4364 8.29025 29.894 8.29025 30.3992C8.29025 30.9044 8.49523 31.362 8.82651 31.6932C9.15779 32.0245 9.61537 32.2295 10.1206 32.2295C10.6258 32.2295 11.0834 32.0245 11.4146 31.6932C11.7459 31.362 11.9509 30.9044 11.9509 30.3992C11.9509 29.894 11.7459 29.4364 11.4146 29.1051C11.0834 28.7738 10.6258 28.5688 10.1206 28.5688Z" fill="#D6F819"/>
<path d="M39.8709 28.5688C39.3657 28.5688 38.9081 28.7738 38.5768 29.1051C38.2455 29.4364 38.0406 29.894 38.0406 30.3992C38.0406 30.9044 38.2455 31.362 38.5768 31.6932C38.9081 32.0245 39.3657 32.2295 39.8709 32.2295C40.3761 32.2295 40.8337 32.0245 41.1649 31.6932C41.4962 31.362 41.7012 30.9044 41.7012 30.3992C41.7012 29.894 41.4962 29.4364 41.1649 29.1051C40.8337 28.7738 40.3761 28.5688 39.8709 28.5688Z" fill="#D6F819"/>
<path fill-rule="evenodd" clip-rule="evenodd" d="M28.7505 14.7451V19.5099H39.7604C39.3271 19.0797 38.9529 18.7132 38.5766 18.3447C37.3664 17.1598 36.1432 15.9616 35.0226 14.7451H28.75H28.7505ZM40.9147 19.1878C41.3945 19.6677 42.4375 20.058 43.6167 20.499C46.5382 21.5922 50.2133 22.9676 49.9903 27.139V28.9916C49.9903 29.7866 49.6653 30.5087 49.1419 31.032C48.6186 31.5553 47.8965 31.8804 47.1015 31.8804H45.3395C45.4689 31.4021 45.5357 30.9046 45.5357 30.3989C45.5357 28.8931 44.9414 27.4583 43.8766 26.3934C42.8119 25.3287 41.3776 24.7344 39.8712 24.7344C38.3654 24.7344 36.9306 25.3286 35.8657 26.3934C34.801 27.4582 34.2067 28.8925 34.2067 30.3989C34.2067 30.9046 34.274 31.402 34.4029 31.8804H15.5875C15.7169 31.4021 15.7836 30.9046 15.7836 30.3989C15.7836 28.8931 15.1894 27.4583 14.1246 26.3934C13.0598 25.3287 11.6255 24.7344 10.1191 24.7344C8.6134 24.7344 7.17857 25.3286 6.1137 26.3934C5.04893 27.4582 4.45464 28.8925 4.45464 30.3989C4.45464 30.9046 4.52193 31.402 4.65082 31.8804H2.88881C2.09373 31.8804 1.37167 31.5553 0.848381 31.032C0.325089 30.5087 0 29.7866 0 28.9916V13.7553L0.646515 15.2797C0.957096 16.0122 1.34687 16.7244 1.79927 17.3782C2.24546 18.0257 2.75066 18.6226 3.31441 19.1707C3.65449 19.5009 4.00907 19.8048 4.38486 20.0936C5.0438 20.5962 5.75093 21.029 6.49936 21.3846C6.98282 21.6165 7.49733 21.8178 8.00933 21.9788C8.42292 22.1077 8.83443 22.2159 9.26147 22.3008C10.7926 22.6062 12.4019 22.6057 13.9331 22.3008C14.358 22.2159 14.7814 22.1072 15.194 21.9762C18.481 20.9332 21.1861 18.4896 22.5479 15.2797C23.3062 13.3453 23.6779 11.4338 23.4284 9.34873C24.8295 9.34873 26.2567 9.32285 27.6538 9.35598C28.366 9.37254 29.0099 9.42896 29.8465 9.61634C32.4677 10.2044 33.37 11.2562 34.725 12.8371C36.6589 15.0924 38.8163 17.0914 40.9127 19.1884L40.9147 19.1878Z" fill="#D6F819"/>
<path fill-rule="evenodd" clip-rule="evenodd" d="M9.46728 0.000473142C5.91582 0.708592 2.99021 3.15029 1.60864 6.40612C3.12432 5.7741 4.77503 5.3662 6.3926 5.10169C6.64158 4.23518 6.94698 3.44012 7.29896 2.73569C7.89681 1.53946 8.63445 0.598368 9.46728 0.000473142ZM7.5277 4.93868C8.81608 4.77925 10.1836 4.69332 11.5994 4.69332C13.0152 4.69332 14.3822 4.77924 15.6706 4.93868C15.4682 4.30873 15.2332 3.72588 14.9702 3.19998C14.0778 1.41571 12.8837 0.311615 11.599 0.311615C10.3142 0.311615 9.12007 1.41519 8.22773 3.19998C7.96478 3.7259 7.72978 4.30874 7.52738 4.93868H7.5277ZM16.8057 5.10122C18.4233 5.36572 20.074 5.77361 21.5896 6.40564C20.2086 3.14982 17.2825 0.708145 13.731 0C14.5639 0.597855 15.301 1.53939 15.8993 2.73518C16.2513 3.43915 16.5567 4.23419 16.8057 5.10122ZM1.13478 7.76802C0.928244 8.52117 0.801432 9.30742 0.763123 10.1171H5.65931C5.69141 8.73443 5.85084 7.41554 6.11432 6.20491C4.43353 6.50824 2.66488 6.98704 1.13424 7.76816L1.13478 7.76802ZM6.70294 10.1171H16.4959C16.4607 8.65373 16.2779 7.2711 15.9767 6.0288C14.6076 5.83935 13.135 5.73583 11.5997 5.73583C10.0644 5.73583 8.59177 5.83884 7.22266 6.0288C6.9214 7.2711 6.73868 8.65373 6.70347 10.1171H6.70294ZM17.5389 10.1171H22.4351C22.3968 9.3075 22.2699 8.52122 22.0634 7.76802C20.5328 6.98693 18.7645 6.50812 17.0833 6.20478C17.3473 7.41499 17.5062 8.73444 17.5383 10.1169L17.5389 10.1171ZM0.762815 11.1601C0.801119 11.9697 0.927944 12.7559 1.13448 13.5091C2.66513 14.2902 4.43283 14.769 6.11402 15.0724C5.85003 13.8622 5.69112 12.5427 5.65902 11.1602L0.762815 11.1601ZM7.22173 15.2484C10.077 15.6438 13.1212 15.6438 15.9763 15.2484C16.2775 14.0061 16.4603 12.6234 16.4955 11.1601H6.70255C6.73775 12.6239 6.92046 14.0061 7.22173 15.2484ZM17.0836 15.0724C18.7649 14.769 20.533 14.2902 22.0631 13.5091C22.2696 12.756 22.3964 11.9697 22.4348 11.1601H17.5386C17.5065 12.5427 17.347 13.8616 17.0836 15.0722L17.0836 15.0724ZM1.60878 14.872C2.99035 18.1279 5.91595 20.5695 9.46741 21.2777C8.63508 20.6793 7.89741 19.7383 7.29912 18.5425C6.94714 17.8385 6.64173 17.0435 6.39276 16.1769C4.7777 15.9129 3.12183 15.5045 1.6088 14.8725L1.60878 14.872ZM13.731 21.2777C17.2825 20.5696 20.2081 18.1284 21.5896 14.872C20.0766 15.5041 18.4207 15.912 16.8057 16.1765C16.5567 17.043 16.2513 17.838 15.8993 18.5421C15.3015 19.7383 14.5639 20.6794 13.731 21.2773L13.731 21.2777ZM15.6706 16.3395C12.9975 16.6708 10.2009 16.6708 7.52783 16.3395C7.73022 16.9694 7.96523 17.5523 8.22819 18.0782C9.12058 19.8625 10.3147 20.9665 11.5994 20.9665C12.8842 20.9665 14.0783 19.863 14.9707 18.0782C15.2336 17.5523 15.4686 16.9694 15.671 16.3395H15.6706Z" fill="#D6F819"/>
</svg>
