<svg width="47" height="47" viewBox="0 0 47 47" fill="none" xmlns="http://www.w3.org/2000/svg">
<path d="M6.14999 4.61228H12.3001C12.7251 4.61228 13.0688 4.26819 13.0688 3.84361C13.0688 3.41903 12.7251 3.07495 12.3001 3.07495H6.14999C5.72503 3.07457 5.38133 3.41903 5.38133 3.84361C5.38133 4.26819 5.72503 4.61228 6.14999 4.61228Z" fill="#D6F819"/>
<path d="M18.4508 4.61228H21.5258C21.9507 4.61228 22.2944 4.26819 22.2944 3.84361C22.2944 3.41903 21.9507 3.07495 21.5258 3.07495H18.4508C18.0258 3.07495 17.6821 3.41903 17.6821 3.84361C17.6821 4.26819 18.0258 4.61228 18.4508 4.61228Z" fill="#D6F819"/>
<path d="M11.7564 9.45027L7.68769 13.519L6.69355 12.5249C6.39333 12.2247 5.90696 12.2247 5.60634 12.5249C5.30613 12.8251 5.30613 13.3115 5.60634 13.6121L7.14365 15.1494C7.29433 15.2997 7.49078 15.3748 7.68762 15.3748C7.88446 15.3748 8.08091 15.2997 8.23121 15.1498L12.8435 10.5375C13.1437 10.2373 13.1437 9.75087 12.8435 9.45026C12.5433 9.15004 12.0569 9.15004 11.7563 9.45026L11.7564 9.45027Z" fill="#D6F819"/>
<path d="M11.5318 13.0683C11.1069 13.0683 10.7632 13.4124 10.7632 13.8369C10.7632 15.5325 9.38417 16.9119 7.68817 16.9119C5.99217 16.9119 4.61317 15.5325 4.61317 13.8369C4.61317 12.1413 5.99217 10.7619 7.68817 10.7619C8.11313 10.7619 8.45683 10.4179 8.45683 9.99327C8.45683 9.56869 8.11313 9.22461 7.68817 9.22461C5.14452 9.22461 3.07587 11.2938 3.07587 13.8369C3.07587 16.3806 5.14501 18.4492 7.68817 18.4492C10.2318 18.4492 12.3005 16.3801 12.3005 13.8369C12.3005 13.4123 11.9568 13.0683 11.5318 13.0683Z" fill="#D6F819"/>
<path d="M15.3756 14.6064H24.6007C25.0256 14.6064 25.3693 14.2623 25.3693 13.8378C25.3693 13.4132 25.0256 13.0691 24.6007 13.0691H15.3756C14.9506 13.0691 14.6069 13.4132 14.6069 13.8378C14.6069 14.2623 14.9506 14.6064 15.3756 14.6064Z" fill="#D6F819"/>
<path d="M46.1256 21.3174C46.1256 21.1106 46.0424 20.9123 45.8944 20.7677L40.6053 15.5939C40.3082 15.3024 39.8306 15.3017 39.5303 15.5939L35.6047 19.4329C35.5997 19.4375 35.5932 19.439 35.5883 19.4436C35.5841 19.4478 35.5825 19.4539 35.5787 19.4581L33.4653 21.5249H27.6754V0.769043C27.6754 0.344463 27.3317 0.00038147 26.9067 0.00038147L0.769043 0C0.344082 0 0 0.344463 0 0.769043V30.7505C0 31.1751 0.343701 31.5191 0.768661 31.5191H13.837V45.357C13.837 45.7816 14.1807 46.1257 14.6057 46.1257H39.2063C39.6312 46.1257 39.9749 45.7816 39.9749 45.357L39.9753 27.6608L45.8942 21.8674C46.0418 21.7228 46.1253 21.5248 46.1253 21.3181L46.1256 21.3174ZM38.6705 26.7865C38.6701 26.7869 38.6697 26.7869 38.669 26.7877L36.4813 28.9297C35.549 29.8318 35.2163 31.2104 35.6329 32.4385C35.6996 32.6387 35.7321 32.8337 35.7321 33.0332C35.7321 33.5275 35.5326 33.9964 35.1713 34.3523L28.9438 40.4482C27.4911 41.87 25.1249 41.8714 23.6692 40.4482L22.6083 39.4102C21.9099 38.7266 21.5253 37.8191 21.5253 36.854C21.5253 35.8889 21.9098 34.9813 22.6087 34.2977L25.7825 31.1929H25.7829L25.7837 31.1918C26.087 30.8954 26.0931 30.4086 25.7963 30.105C25.7215 30.0283 25.6345 29.9711 25.5414 29.9325C25.509 29.9192 25.4739 29.9203 25.44 29.9116C25.3774 29.8952 25.3152 29.8746 25.2508 29.8742C25.2489 29.8742 25.2473 29.873 25.2458 29.873C25.1749 29.873 25.1058 29.8936 25.0371 29.9131C25.0131 29.92 24.9876 29.9177 24.9639 29.9272C24.8716 29.9634 24.7846 30.018 24.7091 30.0916C24.426 30.3682 23.9507 30.3701 23.6677 30.0912C23.5349 29.9623 23.4621 29.7895 23.4621 29.6045C23.4621 29.4199 23.5349 29.247 23.6692 29.117L26.721 26.1335C27.2428 25.6231 28.0061 25.4487 28.7149 25.6776C29.9768 26.0858 31.3417 25.7447 32.2561 24.8578L34.3169 22.8437C34.318 22.8425 34.3188 22.841 34.3199 22.8399L36.1285 21.0714L40.2007 25.1436C40.2266 25.1695 40.2606 25.1806 40.2892 25.2023L38.6705 26.7865ZM26.1383 1.53751V6.14981H1.53769V1.53751H26.1383ZM1.53769 29.9818V7.6879H26.1383V21.5258H14.607C14.1821 21.5258 13.8384 21.8699 13.8384 22.2945V29.9819L1.53769 29.9818ZM18.4498 23.0631H19.9871V24.6004H18.4498V23.0631ZM38.4371 29.1658V44.5877H15.3746V23.0633H16.9119V25.3696C16.9119 25.7942 17.2556 26.1383 17.6806 26.1383H20.7556C21.1805 26.1383 21.5242 25.7942 21.5242 25.3696V23.0633H31.8914L31.1819 23.7568C30.6707 24.2527 29.9162 24.4515 29.1864 24.2149C27.9298 23.8098 26.5752 24.1249 25.6444 25.0343L22.5942 28.0163C22.1608 28.4374 21.9232 29.0016 21.9232 29.6048C21.9232 30.2082 22.1612 30.7724 22.5908 31.1897C22.7636 31.3602 22.9577 31.4972 23.1656 31.6002L21.5321 33.1985C20.5354 34.1739 19.9868 35.4724 19.9868 36.8546C19.9868 38.2367 20.5358 39.5351 21.5325 40.5098L22.5934 41.5478C23.6172 42.5488 24.9611 43.0497 26.3059 43.0497C26.8102 43.0497 27.3145 42.9791 27.802 42.8383C28.6141 42.6037 29.3789 42.1734 30.0183 41.5474L36.2473 35.4497C36.9064 34.8012 37.2688 33.9432 37.2688 33.0339C37.2688 32.6715 37.209 32.3079 37.0896 31.9494C36.8584 31.2669 37.0346 30.5334 37.5527 30.0317L38.4371 29.1658ZM41.3546 24.1587C41.3306 24.1251 41.3168 24.087 41.2871 24.0568L37.2271 19.9969L40.0671 17.2194L44.2568 21.3176L41.3546 24.1587Z" fill="#D6F819"/>
</svg>
