<svg width="48" height="48" viewBox="0 0 48 48" fill="none" xmlns="http://www.w3.org/2000/svg">
<mask id="mask0_155_516" style="mask-type:luminance" maskUnits="userSpaceOnUse" x="0" y="0" width="48" height="48">
<path d="M48 0H0V48H48V0Z" fill="white"/>
</mask>
<g mask="url(#mask0_155_516)">
<path d="M24 48C37.2548 48 48 37.2548 48 24C48 10.7452 37.2548 0 24 0C10.7452 0 0 10.7452 0 24C0 37.2548 10.7452 48 24 48Z" fill="url(#paint0_linear_155_516)"/>
<path fill-rule="evenodd" clip-rule="evenodd" d="M10.8638 23.7468C17.8603 20.6986 22.5257 18.689 24.8601 17.7181C31.5251 14.9458 32.91 14.4643 33.8127 14.4484C34.0113 14.4449 34.4552 14.4941 34.7427 14.7274C34.9855 14.9244 35.0523 15.1906 35.0843 15.3773C35.1163 15.5641 35.1561 15.9897 35.1244 16.3221C34.7633 20.1171 33.2004 29.3265 32.4053 33.5769C32.0689 35.3754 31.4065 35.9784 30.7652 36.0375C29.3714 36.1657 28.3131 35.1164 26.9632 34.2315C24.8509 32.8469 23.6576 31.9849 21.6072 30.6338C19.2377 29.0723 20.7738 28.2141 22.1242 26.8115C22.4776 26.4444 28.6183 20.8589 28.7372 20.3522C28.7521 20.2888 28.7659 20.0526 28.6255 19.9279C28.4852 19.8032 28.2781 19.8458 28.1286 19.8797C27.9168 19.9278 24.5423 22.1582 18.0053 26.5709C17.0475 27.2286 16.1799 27.5491 15.4026 27.5323C14.5457 27.5137 12.8973 27.0477 11.6719 26.6494C10.1689 26.1608 8.97432 25.9025 9.07834 25.0728C9.13252 24.6406 9.72767 24.1986 10.8638 23.7468Z" fill="white"/>
</g>
<defs>
<linearGradient id="paint0_linear_155_516" x1="24" y1="0" x2="24" y2="47.644" gradientUnits="userSpaceOnUse">
<stop stop-color="#2AABEE"/>
<stop offset="1" stop-color="#229ED9"/>
</linearGradient>
</defs>
</svg>
