<svg width="49" height="69" viewBox="0 0 49 69" fill="none" xmlns="http://www.w3.org/2000/svg">
<path d="M25.5938 37.4062H8.20312L8.10938 28.8281H23.2969C25.8594 28.8281 28.0312 28.4531 29.8125 27.7031C31.625 26.9219 33 25.8125 33.9375 24.375C34.875 22.9062 35.3438 21.1406 35.3438 19.0781C35.3438 16.7969 34.9062 14.9375 34.0312 13.5C33.1562 12.0625 31.8125 11.0156 30 10.3594C28.2188 9.70312 25.9375 9.375 23.1562 9.375H11.7656V68.25H0V0H23.1562C26.9062 0 30.25 0.359375 33.1875 1.07812C36.1562 1.79687 38.6719 2.92187 40.7344 4.45312C42.8281 5.95312 44.4062 7.85938 45.4688 10.1719C46.5625 12.4844 47.1094 15.2344 47.1094 18.4219C47.1094 21.2344 46.4375 23.8125 45.0938 26.1562C43.75 28.4688 41.7656 30.3594 39.1406 31.8281C36.5156 33.2969 33.25 34.1719 29.3438 34.4531L25.5938 37.4062ZM25.0781 68.25H4.5L9.79688 58.9219H25.0781C27.7344 58.9219 29.9531 58.4844 31.7344 57.6094C33.5156 56.7031 34.8438 55.4688 35.7188 53.9062C36.625 52.3125 37.0781 50.4531 37.0781 48.3281C37.0781 46.1094 36.6875 44.1875 35.9062 42.5625C35.125 40.9062 33.8906 39.6406 32.2031 38.7656C30.5156 37.8594 28.3125 37.4062 25.5938 37.4062H12.375L12.4688 28.8281H29.6719L32.3438 32.0625C36.0938 32.1875 39.1719 33.0156 41.5781 34.5469C44.0156 36.0781 45.8281 38.0625 47.0156 40.5C48.2031 42.9375 48.7969 45.5625 48.7969 48.375C48.7969 52.7188 47.8438 56.3594 45.9375 59.2969C44.0625 62.2344 41.3594 64.4688 37.8281 66C34.2969 67.5 30.0469 68.25 25.0781 68.25Z" fill="#021842"/>
</svg>
