<svg width="210" height="210" viewBox="0 0 210 210" fill="none" xmlns="http://www.w3.org/2000/svg">
<g clip-path="url(#clip0_117_478)">
<path d="M104.858 0.175049C47.0265 0.175049 0.140503 47.0565 0.140503 104.89C0.140503 162.723 47.0265 209.606 104.858 209.606C162.694 209.606 209.575 162.723 209.575 104.89C209.576 47.0565 162.694 0.175049 104.858 0.175049ZM104.858 204.37C49.915 204.37 5.38094 159.832 5.38094 104.89C5.38094 49.9496 49.915 5.40949 104.858 5.40949C159.801 5.40949 204.339 49.9494 204.339 104.89C204.339 159.832 159.801 204.37 104.858 204.37Z" fill="url(#paint0_linear_117_478)"/>
<path d="M205.089 104.89C205.089 160.242 160.21 205.119 104.858 205.119C49.5059 205.119 4.63138 160.242 4.63138 104.89C4.63138 49.5359 49.5059 4.66138 104.858 4.66138C160.21 4.66138 205.089 49.5359 205.089 104.89Z" fill="#333333"/>
<path d="M204.339 104.89C204.339 159.832 159.801 204.369 104.858 204.369C49.915 204.369 5.38092 159.832 5.38092 104.89C5.38092 49.9495 49.915 5.40942 104.858 5.40942C159.801 5.40942 204.339 49.9495 204.339 104.89Z" fill="url(#paint1_radial_117_478)"/>
<path d="M171.552 104.89C171.552 141.723 141.692 171.582 104.858 171.582C68.0238 171.582 38.1638 141.723 38.1638 104.89C38.1638 68.0557 68.0238 38.1963 104.858 38.1963C141.692 38.1963 171.552 68.0559 171.552 104.89Z" fill="url(#paint2_linear_117_478)"/>
<path d="M107.53 36.3938L114.458 18.0317V36.3938H119.719V10.0962H111.812L104.619 28.925H104.688L97.4956 10.0962H89.5878V36.3938H94.8497V18.0317L101.778 36.3938H107.53Z" fill="black"/>
<path d="M179.741 48.1858L170.751 61.294L184.872 54.3491L188.702 58.9421L166.478 70.101L161.987 64.6643L170.602 51.6755L170.551 51.6115L156.222 57.7446L151.68 52.3445L166.665 32.5017L170.496 37.0971L161.113 49.7326L175.634 43.2559L179.741 48.1858Z" fill="black"/>
<path d="M58.2836 43.162C56.1657 41.1061 52.8977 40.4863 49.8255 42.3908C50.4137 40.8696 50.1749 39.3211 49.864 38.4623C48.5388 36.0529 48.0744 35.7481 46.9924 34.8341C43.4602 31.8748 39.7444 34.4017 37.09 37.5652L24.2568 52.8594L44.4316 69.7852L57.964 53.6606C61.057 49.9753 61.5344 46.3216 58.2836 43.162ZM32.1855 50.5377L39.894 41.3514C40.7886 40.2882 42.8083 40.3308 44.1035 41.4218C45.5307 42.6191 45.5348 44.3146 44.5764 45.4588L36.9537 54.5389L32.1855 50.5377ZM53.4518 52.0651L45.4158 61.6416L40.3841 57.4125L48.4797 47.762C49.3958 46.6709 51.4368 46.3536 52.813 47.5081C54.3635 48.8121 54.5168 50.7955 53.4518 52.0651Z" fill="#333333"/>
<path d="M107.585 35.3777L114.513 17.016V35.3777H119.775V9.08008H111.867L104.675 27.9082H104.743L97.551 9.08008H89.6425V35.3777H94.9049V17.016L101.833 35.3777H107.585Z" fill="url(#paint3_radial_117_478)"/>
<path d="M179.793 46.4215L170.807 59.5301L184.927 52.5829L188.754 57.1781L166.533 68.3371L162.042 62.8983L170.658 49.9112L170.607 49.8452L156.273 55.9809L151.736 50.5781L166.721 30.7375L170.551 35.3311L161.169 47.9664L175.685 41.4922L179.793 46.4215Z" fill="url(#paint4_radial_117_478)"/>
<path d="M57.3417 42.6445C55.2282 40.5886 51.9558 39.9684 48.8884 41.8712C49.4719 40.3498 49.2334 38.8011 48.9227 37.9466C47.5974 35.5331 47.1373 35.2325 46.0462 34.3167C42.5142 31.3554 38.803 33.8838 36.1527 37.0502L23.3147 52.342L43.4899 69.268L57.0221 53.1409C60.1114 49.4553 60.5926 45.8041 57.3417 42.6445ZM31.2445 50.0198L38.9522 40.8357C39.843 39.7707 41.8623 39.8133 43.1618 40.9016C44.5893 42.1012 44.5936 43.7988 43.6304 44.9386L36.0124 54.0206L31.2445 50.0198ZM52.5145 51.5472L44.4785 61.1235L39.4379 56.8944L47.5381 47.2418C48.4539 46.1532 50.4906 45.8357 51.867 46.9906C53.4262 48.2963 53.5797 50.2755 52.5145 51.5472Z" fill="url(#paint5_radial_117_478)"/>
<path d="M40.3839 104.891C40.3839 69.2817 69.251 40.4146 104.858 40.4146C140.47 40.4146 169.333 69.2817 169.333 104.891C169.333 140.499 140.47 169.365 104.858 169.365C69.2508 169.365 40.3839 140.499 40.3839 104.891Z" fill="url(#paint6_radial_117_478)"/>
<path d="M42.2373 104.891C42.2373 70.3063 70.2735 42.2678 104.858 42.2678C139.443 42.2678 167.483 70.3061 167.483 104.891C167.483 139.476 139.443 167.514 104.858 167.514C70.2737 167.514 42.2373 139.476 42.2373 104.891Z" fill="url(#paint7_radial_117_478)"/>
<path d="M42.1392 104.891H104.858V42.1721C70.2177 42.1721 42.1392 70.2508 42.1392 104.891Z" fill="url(#paint8_radial_117_478)"/>
<path d="M104.858 104.891V167.611C139.498 167.611 167.577 139.527 167.577 104.891H104.858Z" fill="url(#paint9_radial_117_478)"/>
<path d="M168.097 103.777H105.97V41.6501H103.746V103.777H41.6194V106.001H103.746V168.13H105.97V106.001H168.097V103.777Z" fill="url(#paint10_radial_117_478)"/>
<path d="M105.97 43.4096C139.055 43.998 165.754 70.6938 166.346 103.777H167.453C166.862 70.0802 139.669 42.8838 105.97 42.2957V43.4096H105.97Z" fill="url(#paint11_linear_117_478)"/>
<path d="M43.2641 103.769C43.8519 70.6407 70.5883 43.9065 103.716 43.3162V42.2041C69.971 42.7942 42.7443 70.0268 42.152 103.768H43.2641V103.769Z" fill="#C2D7E8"/>
<path d="M103.746 166.372C70.661 165.784 43.963 139.086 43.3748 106.001H42.2631C42.8552 139.699 70.0476 166.897 103.746 167.484V166.372H103.746Z" fill="url(#paint12_linear_117_478)"/>
<path d="M166.346 106.001C165.754 139.086 139.055 165.784 105.97 166.372V167.484C139.669 166.897 166.865 139.7 167.453 106.001H166.346Z" fill="#12404F"/>
<path d="M102.558 42.2043V102.556H42.2073V103.747H102.558H103.746V102.556V42.2043H102.558Z" fill="url(#paint13_linear_117_478)"/>
<path d="M102.455 166.901V107.275H42.7063V106.099H102.455H103.631V107.275V166.901H102.455Z" fill="url(#paint14_linear_117_478)"/>
<path d="M107.244 166.901V107.275H166.87V106.099H107.244H106.072V107.275V166.901H107.244Z" fill="url(#paint15_linear_117_478)"/>
<path d="M107.244 42.7371V102.363H166.87V103.536H107.244H106.072V102.363V42.7371H107.244Z" fill="url(#paint16_linear_117_478)"/>
</g>
<defs>
<linearGradient id="paint0_linear_117_478" x1="-15.1886" y1="-11.1154" x2="207" y2="203.592" gradientUnits="userSpaceOnUse">
<stop stop-color="#DFF4FF"/>
<stop offset="0.0984" stop-color="#D6EAF5"/>
<stop offset="0.2678" stop-color="#BFD0D9"/>
<stop offset="0.4879" stop-color="#98A5AC"/>
<stop offset="0.7469" stop-color="#646B6E"/>
<stop offset="1" stop-color="#2B2B2B"/>
</linearGradient>
<radialGradient id="paint1_radial_117_478" cx="0" cy="0" r="1" gradientUnits="userSpaceOnUse" gradientTransform="translate(-1.1647 7.10066) scale(148.775 148.775)">
<stop stop-color="white"/>
<stop offset="0.3064" stop-color="#A8A8A8"/>
<stop offset="0.6461" stop-color="#4F4F4F"/>
<stop offset="0.8853" stop-color="#161616"/>
<stop offset="1"/>
</radialGradient>
<linearGradient id="paint2_linear_117_478" x1="181.316" y1="178.773" x2="39.8051" y2="42.0268" gradientUnits="userSpaceOnUse">
<stop stop-color="#DFF4FF"/>
<stop offset="0.0855" stop-color="#D6EAF5"/>
<stop offset="0.2327" stop-color="#BED0D9"/>
<stop offset="0.4239" stop-color="#96A4AC"/>
<stop offset="0.6516" stop-color="#5F686D"/>
<stop offset="0.9075" stop-color="#1A1D1E"/>
<stop offset="1"/>
</linearGradient>
<radialGradient id="paint3_radial_117_478" cx="0" cy="0" r="1" gradientUnits="userSpaceOnUse" gradientTransform="translate(-27.8842 -8.05023) scale(357.484 357.484)">
<stop stop-color="white"/>
<stop offset="0.3102" stop-color="#FDFDFD"/>
<stop offset="0.4505" stop-color="#F6F6F6"/>
<stop offset="0.5567" stop-color="#E9E9E9"/>
<stop offset="0.6456" stop-color="#D7D7D7"/>
<stop offset="0.7238" stop-color="#BFBFBF"/>
<stop offset="0.7944" stop-color="#A2A2A2"/>
<stop offset="0.8593" stop-color="#808080"/>
<stop offset="0.9199" stop-color="#575757"/>
<stop offset="0.9746" stop-color="#2B2B2B"/>
<stop offset="1" stop-color="#141414"/>
</radialGradient>
<radialGradient id="paint4_radial_117_478" cx="0" cy="0" r="1" gradientUnits="userSpaceOnUse" gradientTransform="translate(-27.9001 -8.05001) scale(357.515 357.515)">
<stop stop-color="white"/>
<stop offset="0.3102" stop-color="#FDFDFD"/>
<stop offset="0.4505" stop-color="#F6F6F6"/>
<stop offset="0.5567" stop-color="#E9E9E9"/>
<stop offset="0.6456" stop-color="#D7D7D7"/>
<stop offset="0.7238" stop-color="#BFBFBF"/>
<stop offset="0.7944" stop-color="#A2A2A2"/>
<stop offset="0.8593" stop-color="#808080"/>
<stop offset="0.9199" stop-color="#575757"/>
<stop offset="0.9746" stop-color="#2B2B2B"/>
<stop offset="1" stop-color="#141414"/>
</radialGradient>
<radialGradient id="paint5_radial_117_478" cx="0" cy="0" r="1" gradientUnits="userSpaceOnUse" gradientTransform="translate(-27.9195 -8.15509) scale(357.789 357.789)">
<stop stop-color="white"/>
<stop offset="0.3102" stop-color="#FDFDFD"/>
<stop offset="0.4505" stop-color="#F6F6F6"/>
<stop offset="0.5567" stop-color="#E9E9E9"/>
<stop offset="0.6456" stop-color="#D7D7D7"/>
<stop offset="0.7238" stop-color="#BFBFBF"/>
<stop offset="0.7944" stop-color="#A2A2A2"/>
<stop offset="0.8593" stop-color="#808080"/>
<stop offset="0.9199" stop-color="#575757"/>
<stop offset="0.9746" stop-color="#2B2B2B"/>
<stop offset="1" stop-color="#141414"/>
</radialGradient>
<radialGradient id="paint6_radial_117_478" cx="0" cy="0" r="1" gradientUnits="userSpaceOnUse" gradientTransform="translate(36.1414 41.5106) scale(96.4244 96.4244)">
<stop stop-color="#E6E6E6"/>
<stop offset="0.1045" stop-color="#D6D6D6"/>
<stop offset="0.3074" stop-color="#ADADAD"/>
<stop offset="0.5884" stop-color="#6C6C6C"/>
<stop offset="0.9335" stop-color="#121212"/>
<stop offset="1"/>
</radialGradient>
<radialGradient id="paint7_radial_117_478" cx="0" cy="0" r="1" gradientUnits="userSpaceOnUse" gradientTransform="translate(62.5145 54.4795) scale(140.229 140.229)">
<stop stop-color="white"/>
<stop offset="0.3435" stop-color="#FDFDFD"/>
<stop offset="0.4814" stop-color="#F6F6F6"/>
<stop offset="0.5824" stop-color="#EAEAEA"/>
<stop offset="0.6654" stop-color="#D8D8D8"/>
<stop offset="0.7373" stop-color="#C2C2C2"/>
<stop offset="0.8016" stop-color="#A6A6A6"/>
<stop offset="0.8602" stop-color="#848484"/>
<stop offset="0.9126" stop-color="#5F5F5F"/>
<stop offset="0.9494" stop-color="#404040"/>
<stop offset="0.9566" stop-color="#404040"/>
<stop offset="1"/>
</radialGradient>
<radialGradient id="paint8_radial_117_478" cx="0" cy="0" r="1" gradientUnits="userSpaceOnUse" gradientTransform="translate(21.3415 1.32352) scale(248.347 248.347)">
<stop offset="0.1685" stop-color="white"/>
<stop offset="0.1957" stop-color="#E0EFF7"/>
<stop offset="0.2406" stop-color="#B2D9EC"/>
<stop offset="0.2872" stop-color="#8BC5E2"/>
<stop offset="0.335" stop-color="#6BB5DA"/>
<stop offset="0.3844" stop-color="#52A9D4"/>
<stop offset="0.4359" stop-color="#41A0CF"/>
<stop offset="0.4911" stop-color="#369BCD"/>
<stop offset="0.5562" stop-color="#3399CC"/>
<stop offset="0.606" stop-color="#3396C8"/>
<stop offset="0.6553" stop-color="#328EBC"/>
<stop offset="0.7045" stop-color="#3180A8"/>
<stop offset="0.7536" stop-color="#2F6D8C"/>
<stop offset="0.8027" stop-color="#2D5468"/>
<stop offset="0.8512" stop-color="#2A373D"/>
<stop offset="0.8708" stop-color="#292929"/>
</radialGradient>
<radialGradient id="paint9_radial_117_478" cx="0" cy="0" r="1" gradientUnits="userSpaceOnUse" gradientTransform="translate(21.3415 1.32187) scale(248.342 248.342)">
<stop offset="0.1685" stop-color="white"/>
<stop offset="0.1957" stop-color="#E0EFF7"/>
<stop offset="0.2406" stop-color="#B2D9EC"/>
<stop offset="0.2872" stop-color="#8BC5E2"/>
<stop offset="0.335" stop-color="#6BB5DA"/>
<stop offset="0.3844" stop-color="#52A9D4"/>
<stop offset="0.4359" stop-color="#41A0CF"/>
<stop offset="0.4911" stop-color="#369BCD"/>
<stop offset="0.5562" stop-color="#3399CC"/>
<stop offset="0.606" stop-color="#3396C8"/>
<stop offset="0.6553" stop-color="#328EBC"/>
<stop offset="0.7045" stop-color="#3180A8"/>
<stop offset="0.7536" stop-color="#2F6D8C"/>
<stop offset="0.8027" stop-color="#2D5468"/>
<stop offset="0.8512" stop-color="#2A373D"/>
<stop offset="0.8708" stop-color="#292929"/>
</radialGradient>
<radialGradient id="paint10_radial_117_478" cx="0" cy="0" r="1" gradientUnits="userSpaceOnUse" gradientTransform="translate(37.4583 42.7253) scale(94.5764 94.5764)">
<stop stop-color="#E6E6E6"/>
<stop offset="0.1045" stop-color="#D6D6D6"/>
<stop offset="0.3074" stop-color="#ADADAD"/>
<stop offset="0.5884" stop-color="#6C6C6C"/>
<stop offset="0.9335" stop-color="#121212"/>
<stop offset="1"/>
</radialGradient>
<linearGradient id="paint11_linear_117_478" x1="92.4571" y1="19.1108" x2="184.688" y2="108.236" gradientUnits="userSpaceOnUse">
<stop stop-color="#F0F4FF"/>
<stop offset="0.1086" stop-color="#EBEFF9"/>
<stop offset="0.2475" stop-color="#DCE0EA"/>
<stop offset="0.4028" stop-color="#C4C7CF"/>
<stop offset="0.5701" stop-color="#A2A4AB"/>
<stop offset="0.7469" stop-color="#76777C"/>
<stop offset="0.9291" stop-color="#414243"/>
<stop offset="1" stop-color="#2B2B2B"/>
</linearGradient>
<linearGradient id="paint12_linear_117_478" x1="17.5957" y1="94.3582" x2="109.828" y2="183.485" gradientUnits="userSpaceOnUse">
<stop stop-color="#F0F4FF"/>
<stop offset="0.1086" stop-color="#EBEFF9"/>
<stop offset="0.2475" stop-color="#DCE0EA"/>
<stop offset="0.4028" stop-color="#C4C7CF"/>
<stop offset="0.5701" stop-color="#A2A4AB"/>
<stop offset="0.7469" stop-color="#76777C"/>
<stop offset="0.9291" stop-color="#414243"/>
<stop offset="1" stop-color="#2B2B2B"/>
</linearGradient>
<linearGradient id="paint13_linear_117_478" x1="62.2156" y1="62.5772" x2="110.041" y2="108.793" gradientUnits="userSpaceOnUse">
<stop stop-color="#C2D7E8"/>
<stop offset="0.1337" stop-color="#BACFE1"/>
<stop offset="0.3425" stop-color="#A4BACD"/>
<stop offset="0.6001" stop-color="#8098AC"/>
<stop offset="0.894" stop-color="#4E697F"/>
<stop offset="1" stop-color="#3A566D"/>
</linearGradient>
<linearGradient id="paint14_linear_117_478" x1="38.2634" y1="73.9015" x2="129.567" y2="162.131" gradientUnits="userSpaceOnUse">
<stop stop-color="#F0F4FF"/>
<stop offset="0.0973" stop-color="#E8EBF6"/>
<stop offset="0.2568" stop-color="#D1D4DD"/>
<stop offset="0.4587" stop-color="#ABAEB5"/>
<stop offset="0.6951" stop-color="#78797D"/>
<stop offset="0.9578" stop-color="#363637"/>
<stop offset="1" stop-color="#2B2B2B"/>
</linearGradient>
<linearGradient id="paint15_linear_117_478" x1="105.56" y1="106.63" x2="137.587" y2="137.578" gradientUnits="userSpaceOnUse">
<stop stop-color="#D9DEF0"/>
<stop offset="0.1229" stop-color="#D4DAEC"/>
<stop offset="0.2629" stop-color="#C7CFE2"/>
<stop offset="0.4114" stop-color="#B0BCD1"/>
<stop offset="0.5657" stop-color="#90A1B8"/>
<stop offset="0.7246" stop-color="#677F99"/>
<stop offset="0.8849" stop-color="#355674"/>
<stop offset="0.9719" stop-color="#173D5D"/>
</linearGradient>
<linearGradient id="paint16_linear_117_478" x1="72.7974" y1="40.4159" x2="164.002" y2="128.55" gradientUnits="userSpaceOnUse">
<stop stop-color="#F0F4FF"/>
<stop offset="0.1086" stop-color="#EBEFF9"/>
<stop offset="0.2475" stop-color="#DCE0EA"/>
<stop offset="0.4028" stop-color="#C4C7CF"/>
<stop offset="0.5701" stop-color="#A2A4AB"/>
<stop offset="0.7469" stop-color="#76777C"/>
<stop offset="0.9291" stop-color="#414243"/>
<stop offset="1" stop-color="#2B2B2B"/>
</linearGradient>
<clipPath id="clip0_117_478">
<rect width="209.7" height="209.7" fill="white"/>
</clipPath>
</defs>
</svg>
