<svg width="210" height="210" viewBox="0 0 210 210" fill="none" xmlns="http://www.w3.org/2000/svg">
<path fill-rule="evenodd" clip-rule="evenodd" d="M105 187.162C150.413 187.162 187.163 150.412 187.163 105C187.163 59.5874 150.413 22.8374 105 22.8374C59.5875 22.8374 22.8375 59.5874 22.8375 105C22.8375 150.412 59.5875 187.162 105 187.162ZM27.825 105C27.825 62.2124 62.2125 27.8249 105 27.8249C147.788 27.8249 182.175 62.2124 182.175 105C182.175 147.525 147.788 182.175 105 182.175C62.475 182.175 27.825 147.787 27.825 105Z" fill="url(#paint0_linear_90_300)"/>
<path fill-rule="evenodd" clip-rule="evenodd" d="M27.825 105C27.825 62.2124 62.2125 27.825 105 27.825C147.788 27.825 182.175 62.2124 182.175 105C182.175 147.525 147.788 182.175 105 182.175C62.475 182.175 27.825 147.787 27.825 105ZM32.8125 105C32.8125 144.9 65.1 177.187 105 177.187C144.9 177.187 177.188 144.9 177.188 105C177.188 65.1 144.9 32.8125 105 32.8125C65.1 32.8125 32.8125 65.1 32.8125 105Z" fill="url(#paint1_linear_90_300)"/>
<path opacity="0.4" fill-rule="evenodd" clip-rule="evenodd" d="M189 105C189 58.8 151.2 21 105 21C58.8 21 21 58.8 21 105C21 151.2 58.8 189 105 189C151.2 189 189 151.2 189 105ZM187.162 105C187.162 150.412 150.412 187.162 105 187.162C59.5875 187.162 22.8375 150.412 22.8375 105C22.8375 59.5875 59.5875 22.8375 105 22.8375C150.412 22.8375 187.162 59.5875 187.162 105Z" fill="url(#paint2_linear_90_300)"/>
<path fill-rule="evenodd" clip-rule="evenodd" d="M105 26.7749C61.6875 26.7749 26.775 62.2124 26.775 105.262C26.775 148.312 61.6875 183.225 105 183.225C148.313 183.225 183.225 148.312 183.225 105.262C183.225 61.9499 148.313 26.7749 105 26.7749ZM28.6125 105.262C28.6125 84.2624 37.275 65.0999 51.1875 51.1874C64.8375 37.2749 84 28.6124 105 28.6124C126 28.6124 145.163 37.2749 158.813 51.1874C172.463 65.0999 181.125 84.2624 181.125 105.262C181.125 126.262 172.725 145.425 158.813 159.075C145.163 172.987 126 181.387 105 181.387C84 181.387 64.8375 172.725 50.925 159.075C37.275 145.425 28.6125 126.262 28.6125 105.262Z" fill="white"/>
<path opacity="0.4" fill-rule="evenodd" clip-rule="evenodd" d="M53.8125 156.188C67.4625 169.838 85.575 177.45 105 177.45C124.425 177.45 142.537 169.838 156.187 156.188C169.837 142.538 177.45 124.425 177.45 105C177.45 85.575 169.837 67.4625 156.187 53.8125C142.537 40.1625 124.425 32.55 105 32.55C85.575 32.55 67.4625 40.1625 53.8125 53.8125C40.1625 67.4625 32.55 85.575 32.55 105C32.55 124.425 40.1625 142.538 53.8125 156.188ZM154.612 154.875C141.487 168 123.637 175.35 105 175.35C86.3625 175.35 68.5125 168 55.125 154.613C42 141.488 34.65 123.638 34.65 105C34.65 86.3626 42 68.5126 55.3875 55.65C68.5125 42.525 86.3625 35.175 105 35.175C123.637 35.175 141.225 42.2625 154.612 55.65C167.737 68.7751 175.087 86.625 175.087 105.263C175.087 123.9 168 141.488 154.612 154.875Z" fill="url(#paint3_linear_90_300)"/>
<path d="M168.787 139.125C167.475 138.075 116.812 97.9125 116.812 97.9125L105 30.45C104.212 30.7125 103.162 31.5 102.637 32.55L94.2375 98.175L42 138.337C42 138.337 40.95 139.65 40.425 140.437C40.1625 140.962 40.1625 141.75 40.1625 142.537L104.737 116.025L169.312 142.537C169.837 141.225 169.312 139.912 168.787 139.125Z" fill="white"/>
<path d="M105.525 107.1L105 119.175L164.325 143.062C166.425 144.112 168 143.587 169.575 142.537L106.312 106.837C106.05 106.575 105.525 106.837 105.525 107.1Z" fill="#565F64"/>
<path d="M105.525 107.1C105.525 107.1 108.938 113.137 112.875 117.337C118.388 123.375 125.738 127.575 125.738 127.575L164.325 143.062C166.425 144.112 168 143.587 169.575 142.537L106.313 106.837C106.05 106.575 105.525 106.837 105.525 107.1Z" fill="url(#paint4_linear_90_300)"/>
<path d="M169.312 140.175C169.312 139.913 169.05 139.65 168.787 139.125L114.712 99.4875L107.362 104.213C107.362 104.213 107.887 104.475 108.15 104.213C108.937 103.95 110.512 103.688 112.087 104.213C113.4 104.738 169.312 140.438 169.312 140.175C169.312 140.438 169.312 140.438 169.312 140.175Z" fill="#A4AAAE" fill-opacity="0.6"/>
<path d="M167.475 137.813L117.075 97.9126L114.713 99.4876L168.788 139.388C168.525 138.863 168 138.338 167.475 137.813Z" fill="#333E46"/>
<path d="M106.312 103.162L106.05 103.425C106.05 103.425 106.05 103.95 106.575 103.687C106.837 103.425 114.45 99.4874 117.075 97.9124L107.887 34.9124C107.625 32.5499 106.575 31.4999 104.737 30.7124L105.787 103.687L106.312 103.162Z" fill="#565F64"/>
<path fill-rule="evenodd" clip-rule="evenodd" d="M101.85 38.3249V34.9124C102.112 33.5999 102.375 32.5499 103.162 32.0249L102.9 37.0124L100.537 101.062L97.125 98.4374C96.3375 97.9124 96.075 97.1249 96.075 96.3374L101.85 38.3249ZM95.55 99.4874L98.7 102.112C99.4875 102.9 99.225 103.425 98.175 103.95L42.2625 139.125L40.425 140.175C40.6875 139.125 42.2625 138.075 42.2625 138.075L95.55 99.4874Z" fill="#A4AAAE" fill-opacity="0.6"/>
<path d="M104.212 107.1C104.212 106.837 103.95 106.575 103.687 106.837L40.1625 142.8C41.7375 143.85 43.3125 144.112 45.4125 143.325L104.737 119.437L104.212 107.1Z" fill="#565F64"/>
<path d="M106.05 103.425L106.312 103.163L106.05 103.425C106.05 103.425 106.05 103.688 106.312 103.688H106.575C106.837 103.425 114.45 99.4875 117.075 97.9125L116.025 90.3L107.887 34.9125C107.887 33.8625 107.625 33.075 107.1 32.55C107.1 32.55 111.037 85.575 111.037 91.35C111.037 98.9625 106.05 103.425 106.05 103.425H106.05Z" fill="url(#paint5_linear_90_300)"/>
<path d="M104.212 107.1C104.212 106.837 103.95 106.575 103.687 106.837L40.1625 142.8C41.7375 143.85 43.3125 144.112 45.4125 143.325L104.737 119.437L104.212 107.1Z" fill="url(#paint6_linear_90_300)" fill-opacity="0.8"/>
<path opacity="0.8" d="M45.4125 143.062L104.738 119.175L104.213 107.625C103.163 110.775 101.325 114.187 96.3375 116.812C92.6625 118.912 57.4875 136.237 44.8875 142.275C44.1 142.8 43.05 143.062 42.525 143.325C43.575 143.85 44.3625 143.587 45.4125 143.062Z" fill="url(#paint7_linear_90_300)"/>
<path d="M106.312 103.162L106.05 103.425C106.05 103.425 106.05 103.95 106.575 103.687C106.837 103.425 114.45 99.4874 117.075 97.9124L107.887 34.9124C107.625 32.5499 106.575 31.4999 104.737 30.7124L105.787 103.687L106.312 103.162Z" fill="url(#paint8_linear_90_300)"/>
<path d="M106.312 103.162L106.05 103.425C106.05 103.425 106.05 103.95 106.575 103.687C106.837 103.425 114.45 99.4874 117.075 97.9124L107.887 34.9124C107.625 32.5499 106.575 31.4999 104.737 30.7124L105.787 103.687L106.312 103.162Z" fill="url(#paint9_linear_90_300)"/>
<path d="M34.3875 137.55C32.55 133.35 22.05 112.875 33.6 73.5H29.1375C26.775 81.375 24.9375 86.1 23.8875 93.1875C23.8875 93.1875 23.3625 95.8125 23.1 98.7C22.8375 101.587 22.8375 103.163 22.8375 105C22.8375 120.75 26.775 129.938 26.775 129.938C30.975 143.062 38.325 154.875 48.3 163.8C56.9625 171.412 70.35 177.188 81.375 179.287C79.5375 179.025 48.0375 165.637 34.3875 137.55Z" fill="url(#paint10_linear_90_300)"/>
<path d="M106.05 106.575H103.688C103.95 106.575 104.213 106.575 104.213 106.838L104.738 118.913H105L105.525 106.838C105.525 106.575 105.788 106.313 106.05 106.575Z" fill="url(#paint11_linear_90_300)"/>
<path d="M131.25 27.0376C158.812 37.5376 184.8 66.4126 184.8 102.9C184.8 147 149.625 182.963 105 182.963V187.163C149.625 187.163 187.162 150.413 187.162 105C187.162 68.7751 164.062 38.3251 131.25 27.0376Z" fill="url(#paint12_linear_90_300)"/>
<path d="M175.35 74.025C156.975 31.7625 115.5 29.4 113.137 29.1375H112.875C144.637 34.9125 164.85 55.65 171.937 77.4375V77.7C175.087 86.1 176.662 95.025 176.925 104.737C177.187 113.925 175.087 124.162 171.15 133.612C170.887 134.925 170.625 136.5 170.362 136.5H174.562C187.162 112.875 181.65 88.9875 175.35 74.025Z" fill="url(#paint13_linear_90_300)"/>
<path fill-rule="evenodd" clip-rule="evenodd" d="M105 26.7749C61.6875 26.7749 26.775 62.2124 26.775 105.262C26.775 148.312 61.6875 183.225 105 183.225C148.313 183.225 183.225 148.312 183.225 105.262C183.225 61.9499 148.313 26.7749 105 26.7749ZM28.6125 105.262C28.6125 84.2624 37.275 65.0999 51.1875 51.1874C64.8375 37.2749 84 28.6124 105 28.6124C126 28.6124 145.163 37.2749 158.813 51.1874C172.463 65.0999 181.125 84.2624 181.125 105.262C181.125 126.262 172.725 145.425 158.813 159.075C145.163 172.987 126 181.387 105 181.387C84 181.387 64.8375 172.725 50.925 159.075C37.275 145.425 28.6125 126.262 28.6125 105.262Z" fill="#FBFBFB"/>
<path d="M41.7375 138.6L95.2875 100.013C98.175 101.588 102.9 103.688 103.425 103.688C103.95 103.95 103.95 103.425 103.95 103.425L97.3875 97.9126C96.6 97.3876 96.3375 96.6001 96.3375 95.8126L102.637 32.55C102.375 32.8125 102.375 33.3375 102.112 33.6C101.85 34.125 101.85 34.3875 101.85 34.9125L92.6625 98.1751L42.2625 137.813C42 138.075 41.7375 138.338 41.7375 138.6Z" fill="#333F47"/>
<defs>
<linearGradient id="paint0_linear_90_300" x1="-10.773" y1="115.237" x2="115.238" y2="220.773" gradientUnits="userSpaceOnUse">
<stop stop-color="white"/>
<stop offset="0.1" stop-color="#E7E8E6"/>
<stop offset="0.1" stop-color="#CDD0D0"/>
<stop offset="0.2" stop-color="#B5BBBD"/>
<stop offset="0.2" stop-color="#A5ACAF"/>
<stop offset="0.3" stop-color="#9BA3A7"/>
<stop offset="0.3" stop-color="#98A0A4"/>
<stop offset="0.4" stop-color="#828A8F"/>
<stop offset="0.5" stop-color="#667075"/>
<stop offset="0.6" stop-color="#535C63"/>
<stop offset="0.7" stop-color="#475158"/>
<stop offset="0.8" stop-color="#434D54"/>
<stop offset="1" stop-color="#475157"/>
</linearGradient>
<linearGradient id="paint1_linear_90_300" x1="-3.75111" y1="114.342" x2="114.374" y2="213.567" gradientUnits="userSpaceOnUse">
<stop stop-color="#0B1F2A"/>
<stop offset="0.2" stop-color="#333F47"/>
<stop offset="0.5" stop-color="#777F84"/>
<stop offset="0.5" stop-color="#81898D"/>
<stop offset="0.7" stop-color="#B3B8B8"/>
<stop offset="0.8" stop-color="#D2D5D3"/>
<stop offset="0.8" stop-color="#DEE0DD"/>
<stop offset="1" stop-color="#FBFBFB"/>
</linearGradient>
<linearGradient id="paint2_linear_90_300" x1="212.721" y1="155.172" x2="155.233" y2="-2.85075" gradientUnits="userSpaceOnUse">
<stop stop-color="#E1E3E1"/>
<stop offset="0.1" stop-color="#C1C5C4"/>
<stop offset="0.3" stop-color="#9BA1A2"/>
<stop offset="0.5" stop-color="#7D8487"/>
<stop offset="0.7" stop-color="#687074" stop-opacity="0.01"/>
<stop offset="0.8" stop-color="#5B6469" stop-opacity="0.01"/>
<stop offset="1" stop-color="#576065" stop-opacity="0.01"/>
</linearGradient>
<linearGradient id="paint3_linear_90_300" x1="6.04274" y1="78.4875" x2="78.4875" y2="203.957" gradientUnits="userSpaceOnUse">
<stop stop-color="#E1E3E1"/>
<stop offset="0.1" stop-color="#C1C5C4"/>
<stop offset="0.3" stop-color="#9BA1A2"/>
<stop offset="0.5" stop-color="#7D8487"/>
<stop offset="0.7" stop-color="#687074" stop-opacity="0.01"/>
<stop offset="0.8" stop-color="#5B6469" stop-opacity="0.01"/>
<stop offset="1" stop-color="#576065" stop-opacity="0.01"/>
</linearGradient>
<linearGradient id="paint4_linear_90_300" x1="131.403" y1="123.121" x2="129.805" y2="131.048" gradientUnits="userSpaceOnUse">
<stop stop-color="#27343C"/>
<stop offset="1" stop-color="#00111E" stop-opacity="0.01"/>
</linearGradient>
<linearGradient id="paint5_linear_90_300" x1="125.813" y1="73.7065" x2="118.018" y2="73.4057" gradientUnits="userSpaceOnUse">
<stop offset="0.1" stop-color="#02131F"/>
<stop offset="0.9" stop-color="#02131F" stop-opacity="0.01"/>
</linearGradient>
<linearGradient id="paint6_linear_90_300" x1="102.208" y1="113.219" x2="94.3593" y2="120.029" gradientUnits="userSpaceOnUse">
<stop offset="0.2" stop-color="#02131F"/>
<stop offset="0.9" stop-color="#02131F" stop-opacity="0.01"/>
</linearGradient>
<linearGradient id="paint7_linear_90_300" x1="78.98" y1="130.542" x2="78.4345" y2="126.467" gradientUnits="userSpaceOnUse">
<stop stop-color="#02131F"/>
<stop offset="0.1" stop-color="#02131F"/>
<stop offset="1" stop-color="#02131F" stop-opacity="0.01"/>
</linearGradient>
<linearGradient id="paint8_linear_90_300" x1="114.367" y1="39.7649" x2="105.438" y2="39.7948" gradientUnits="userSpaceOnUse">
<stop offset="0.3" stop-color="#02131F"/>
<stop offset="0.3" stop-color="#02131F"/>
<stop offset="0.8" stop-color="#02131F" stop-opacity="0.01"/>
</linearGradient>
<linearGradient id="paint9_linear_90_300" x1="114.667" y1="48.1557" x2="108.624" y2="48.1782" gradientUnits="userSpaceOnUse">
<stop offset="0.4" stop-color="#27343C"/>
<stop offset="1" stop-color="#3B474E" stop-opacity="0.01"/>
</linearGradient>
<linearGradient id="paint10_linear_90_300" x1="8.36205" y1="173.358" x2="86.6237" y2="187.186" gradientUnits="userSpaceOnUse">
<stop stop-color="#24303A" stop-opacity="0.01"/>
<stop stop-color="#25323B" stop-opacity="0.01"/>
<stop offset="0.1" stop-color="#27343C"/>
</linearGradient>
<linearGradient id="paint11_linear_90_300" x1="106.197" y1="119.175" x2="106.197" y2="106.575" gradientUnits="userSpaceOnUse">
<stop offset="0.3" stop-color="#A5ABAF"/>
<stop offset="1" stop-color="#A5ABAF" stop-opacity="0.01"/>
</linearGradient>
<linearGradient id="paint12_linear_90_300" x1="105" y1="27.0376" x2="105" y2="187.163" gradientUnits="userSpaceOnUse">
<stop stop-color="#DEE0DD"/>
<stop stop-color="#C5C9C7"/>
<stop stop-color="#9EA4A5"/>
<stop stop-color="#82898C"/>
<stop stop-color="#71797D"/>
<stop stop-color="#6B7378"/>
<stop offset="0.2" stop-color="#333F47"/>
<stop offset="0.5" stop-color="#27343C"/>
<stop offset="0.8" stop-color="#333F47"/>
<stop offset="1" stop-color="#434D54"/>
</linearGradient>
<linearGradient id="paint13_linear_90_300" x1="154.615" y1="14.7838" x2="105.685" y2="44.6627" gradientUnits="userSpaceOnUse">
<stop offset="0.7" stop-color="#27343C"/>
<stop offset="0.7" stop-color="#2B373F"/>
<stop offset="0.7" stop-color="#36424A"/>
<stop offset="0.7" stop-color="#49545B"/>
<stop offset="0.8" stop-color="#646D73" stop-opacity="0.01"/>
<stop offset="0.8" stop-color="#868D92" stop-opacity="0.01"/>
<stop offset="0.8" stop-color="#B0B5B8" stop-opacity="0.01"/>
<stop offset="0.8" stop-color="#E1E3E4" stop-opacity="0.01"/>
<stop offset="0.8" stop-color="white" stop-opacity="0.01"/>
</linearGradient>
</defs>
</svg>
