<svg width="44" height="45" viewBox="0 0 44 45" fill="none" xmlns="http://www.w3.org/2000/svg">
<g clip-path="url(#clip0_93_316)">
<path d="M21.9277 44.9518C34.0381 44.9518 43.8554 34.889 43.8554 22.4759C43.8554 10.0628 34.0381 0 21.9277 0C9.81737 0 0 10.0628 0 22.4759C0 34.889 9.81737 44.9518 21.9277 44.9518Z" fill="#F0F0F0"/>
<path d="M42.4915 30.2936C43.373 27.8587 43.8554 25.2252 43.8554 22.4759C43.8554 19.7267 43.373 17.0931 42.4915 14.6583H1.36389C0.482495 17.0931 0 19.7267 0 22.4759C0 25.2252 0.482495 27.8587 1.36389 30.2936L21.9277 32.248L42.4915 30.2936Z" fill="#0052B4"/>
<path d="M21.9277 44.9518C31.3559 44.9518 39.3933 38.8524 42.4915 30.2936H1.36389C4.46212 38.8524 12.4996 44.9518 21.9277 44.9518Z" fill="#D80027"/>
</g>
<defs>
<clipPath id="clip0_93_316">
<rect width="43.8554" height="44.9518" fill="white"/>
</clipPath>
</defs>
</svg>
