<svg width="50" height="50" viewBox="0 0 50 50" fill="none" xmlns="http://www.w3.org/2000/svg">
<path d="M25 5.78141C14.4023 5.78141 5.78125 14.403 5.78125 25.0002C5.78125 28.7203 6.84668 32.1943 8.68428 35.1398C8.69343 35.1566 8.69496 35.1768 8.70564 35.1928C8.71937 35.2134 8.73806 35.2291 8.75332 35.2481C12.1633 40.6334 18.1688 44.2188 25.0004 44.2188C35.598 44.2188 44.2191 35.5972 44.2191 25C44.2191 14.4028 35.5976 5.78125 25.0004 5.78125L25 5.78141ZM40.3857 33.6974C38.454 32.5752 35.9184 31.6985 33.0311 31.1305C33.3053 29.2125 33.456 27.1545 33.456 25.0006C33.456 22.9426 33.3191 20.9715 33.0677 19.1268C35.9981 18.5432 38.5574 17.641 40.4892 16.4855C41.8846 19.0128 42.6811 21.9146 42.6811 25.0006C42.6811 28.1607 41.8441 31.1274 40.3857 33.6974ZM25 42.6818C22.517 42.6818 19.9062 38.7527 18.7271 32.3947C20.7127 32.088 22.8345 31.9198 25 31.9198C27.1862 31.9198 29.3026 32.0826 31.2752 32.384C30.0976 38.7485 27.4846 42.6818 25 42.6818ZM25 30.382C22.7345 30.382 20.5376 30.5533 18.4818 30.8695C18.2278 29.0675 18.0809 27.1063 18.0809 25.001C18.0809 23.002 18.2095 21.1287 18.4391 19.4029C20.4963 19.7195 22.694 19.8912 24.9573 19.8912C27.253 19.8912 29.4799 19.7153 31.5586 19.3915C31.7894 21.1203 31.9187 22.9975 31.9187 25.0009C31.9187 27.1074 31.7719 29.0685 31.5182 30.8703C29.461 30.5537 27.2621 30.382 25 30.382ZM25 7.31949C27.5169 7.31949 30.1666 11.3539 31.3213 17.8634C29.3102 18.1801 27.1561 18.3525 24.9576 18.3525C22.7691 18.3525 20.6497 18.1896 18.6752 17.8875C19.8276 11.3635 22.48 7.31911 25 7.31911V7.31949ZM39.6894 15.1724C37.9374 16.2158 35.5543 17.0459 32.8261 17.5955C32.0498 13.2574 30.6044 9.76051 28.7646 7.72731C33.2964 8.71451 37.1848 11.4405 39.6894 15.1728L39.6894 15.1724ZM21.2354 7.72692C19.3909 9.76393 17.9437 13.2735 17.1685 17.6254C14.4425 17.0863 12.0701 16.2624 10.2859 15.2091C12.7899 11.4593 16.6882 8.71725 21.2352 7.72701L21.2354 7.72692ZM9.48828 16.524C11.43 17.6711 13.9969 18.5656 16.93 19.1423C16.6794 20.9826 16.5439 22.949 16.5439 25.0009C16.5439 27.1551 16.6946 29.2128 16.9697 31.1311C14.0824 31.6991 11.5451 32.5735 9.61419 33.6972C8.15618 31.1269 7.31888 28.1602 7.31888 25.0008C7.31888 21.9311 8.10623 19.0422 9.48831 16.5238L9.48828 16.524ZM10.4294 35.0025C12.1845 33.9931 14.5389 33.1913 17.2199 32.6588C18.0065 36.8801 19.4309 40.2817 21.236 42.2753C16.7747 41.3033 12.9379 38.6448 10.4294 35.0025ZM28.7643 42.2749C30.571 40.279 31.9962 36.8736 32.7827 32.6462C35.4587 33.1749 37.7971 33.9767 39.571 35.0017C37.0624 38.6448 33.2256 41.3032 28.7643 42.2749Z" fill="#D6F819"/>
</svg>
