<svg width="50" height="50" viewBox="0 0 50 50" fill="none" xmlns="http://www.w3.org/2000/svg">
<path d="M41.1377 16.291C41.0885 8.27139 35.0368 3.49902 24.9512 3.49902C15.2096 3.49902 8.8623 8.51729 8.8623 16.291C8.8623 17.5209 9.89531 18.5543 11.1256 18.5543H13.7825C15.0124 18.5543 16.0458 17.5701 16.0458 16.291C16.0458 14.1262 17.2265 10.4854 24.9021 10.4854C33.9055 10.4854 33.9055 14.8644 33.9055 16.291C33.9055 20.0794 32.4296 20.7191 30.0187 21.4568C22.688 23.5725 20.2276 27.0164 20.2276 35.1834C20.2276 36.4133 21.2606 37.4467 22.4909 37.4467H25.0986C26.3285 37.4467 27.3619 36.4137 27.3619 35.1834C27.3619 29.5746 27.608 29.5254 31.9376 28.1972C34.7418 27.3606 41.1375 25.4418 41.1375 16.2909L41.1377 16.291Z" fill="#D6F819"/>
<path d="M24.1143 40.1533C21.7033 40.1533 19.8338 41.9737 19.8338 44.4338C19.8338 46.8447 21.6542 48.7143 24.1143 48.7143C26.5252 48.7143 28.3947 46.8939 28.3947 44.4338C28.3947 42.0229 26.5743 40.1533 24.1143 40.1533Z" fill="#D6F819"/>
</svg>
